<?xml version="1.0" encoding="UTF-8" standalone="no"?>
<!-- Created with Inkscape (http://www.inkscape.org/) -->

<svg
   width="375.88467mm"
   height="115.12025mm"
   viewBox="0 0 375.88468 115.12025"
   version="1.1"
   id="svg5"
   sodipodi:docname="logo2.svg"
   inkscape:version="1.1.2 (b8e25be833, 2022-02-05)"
   xmlns:inkscape="http://www.inkscape.org/namespaces/inkscape"
   xmlns:sodipodi="http://sodipodi.sourceforge.net/DTD/sodipodi-0.dtd"
   xmlns="http://www.w3.org/2000/svg"
   xmlns:svg="http://www.w3.org/2000/svg">
  <sodipodi:namedview
     id="namedview7"
     pagecolor="#ffffff"
     bordercolor="#666666"
     borderopacity="1.0"
     inkscape:pageshadow="2"
     inkscape:pageopacity="0.0"
     inkscape:pagecheckerboard="0"
     inkscape:document-units="mm"
     showgrid="false"
     fit-margin-top="0"
     fit-margin-left="0"
     fit-margin-right="0"
     fit-margin-bottom="0"
     inkscape:zoom="0.57994529"
     inkscape:cx="753.51936"
     inkscape:cy="241.40208"
     inkscape:window-width="1600"
     inkscape:window-height="837"
     inkscape:window-x="-8"
     inkscape:window-y="-8"
     inkscape:window-maximized="1"
     inkscape:current-layer="layer1" />
  <defs
     id="defs2" />
  <g
     inkscape:label="Camada 1"
     inkscape:groupmode="layer"
     id="layer1"
     transform="translate(95.329437,-82.499785)">
    <g
       inkscape:label="Camada 1"
       id="layer1-2"
       transform="translate(-100.26806,81.060158)">
      <g
         id="g16941"
         transform="matrix(1.968044,0,0,1.968044,-92.154775,-143.70671)">
        <path
           id="rect586"
           style="fill:#ebe0bd;fill-opacity:1;stroke-width:4.9124"
           d="m 57.135274,87.911296 h 7.451611 l -0.0422,12.951494 -1.78778,3.81534 1.767837,2.30585 -0.03729,11.44537 -1.12109,4.52226 1.220523,3.72582 -3.27614,4.43548 h -4.175471 z"
           sodipodi:nodetypes="ccccccccccc" />
        <path
           id="path1295"
           style="fill:#ebe0bd;fill-opacity:1;stroke-width:10"
           inkscape:transform-center-x="-0.0062448441"
           inkscape:transform-center-y="-1.1513386"
           d="m 60.874837,73.751571 -11.539864,8.355045 4.380095,13.557312 14.246675,0.02377 4.42557,-13.542325 z m -0.01395,3.603397 a 1.8629032,1.8629032 0 0 1 1.862935,1.862936 1.8629032,1.8629032 0 0 1 -1.862935,1.862935 1.8629032,1.8629032 0 0 1 -1.862936,-1.862935 1.8629032,1.8629032 0 0 1 1.862936,-1.862936 z" />
        <rect
           style="fill:#ebe0bd;fill-opacity:1;stroke-width:7.57699"
           id="rect1350"
           width="30.523479"
           height="8.1620665"
           x="-42.749207"
           y="115.90863"
           transform="matrix(0.58226026,-0.81300246,0.79488914,0.60675469,0,0)" />
        <circle
           style="fill:none;fill-opacity:1;stroke:#ebe0bd;stroke-width:2;stroke-dasharray:none;stroke-opacity:1"
           id="path14777"
           cx="66.887093"
           cy="104.67743"
           r="7.0080643" />
        <rect
           style="fill:#ebe0bd;fill-opacity:1;stroke:none;stroke-width:2.11066;stroke-dasharray:none;stroke-opacity:1"
           id="rect15303"
           width="28.87516"
           height="7.223865"
           x="127.96583"
           y="16.02441"
           transform="matrix(0.66630504,0.74567929,-0.7531727,0.65782283,0,0)" />
      </g>
      <g
         aria-label="eyfriends"
         id="text16934"
         style="font-weight:bold;font-size:65.9362px;font-family:Lato;-inkscape-font-specification:'Lato Bold';fill:#ebe0bd;stroke:#ebe0bd;stroke-width:2.14835">
        <path
           d="m 94.707071,55.425599 q 7.450789,0 11.802579,4.285854 4.35179,4.219917 4.35179,12.066325 v 4.747406 H 87.651897 q 0.131872,4.153981 2.439639,6.527684 2.373704,2.373704 6.527685,2.373704 3.428679,0 6.263939,-0.659362 2.90119,-0.725299 5.93426,-2.175895 v 7.582663 q -2.70339,1.318724 -5.60458,1.91215 -2.90119,0.659362 -7.055173,0.659362 -5.406768,0 -9.560749,-1.978086 -4.153981,-2.044022 -6.527684,-6.066131 -2.373704,-4.088044 -2.373704,-10.351983 0,-6.26394 2.109959,-10.483857 2.175895,-4.219917 6.000194,-6.329875 3.8243,-2.109959 8.901388,-2.109959 z m 0.06594,6.989238 q -2.901193,0 -4.747407,1.846214 -1.846213,1.846213 -2.175894,5.736449 h 13.78066 q -0.0659,-3.230874 -1.780271,-5.406768 -1.648406,-2.175895 -5.077088,-2.175895 z"
           id="path1380" />
        <path
           d="m 112.37792,56.084961 h 10.7476 l 6.79143,20.242415 q 0.52749,1.516532 0.79123,3.033065 0.26375,1.516533 0.39562,3.230874 h 0.19781 q 0.19781,-1.714341 0.52749,-3.230874 0.32968,-1.516533 0.85717,-3.033065 l 6.65956,-20.242415 h 10.54979 l -15.23127,40.616701 q -2.10995,5.604578 -6.00019,8.373898 -3.89024,2.83526 -9.03326,2.83526 -1.71434,0 -2.90119,-0.19781 -1.18685,-0.13187 -2.10996,-0.32968 v -7.780475 q 0.65936,0.131873 1.71434,0.263745 1.05498,0.131873 2.1759,0.131873 3.099,0 4.87927,-1.91215 1.78028,-1.846214 2.70339,-4.483662 l 0.59342,-1.780278 z"
           id="path1382" />
        <path
           d="m 174.95139,63.469816 h -8.50577 v 28.616312 h -9.82449 V 63.469816 h -5.40677 V 58.72241 l 5.40677,-2.637449 v -2.637448 q 0,-4.615534 1.51653,-7.12111 1.58247,-2.571512 4.41773,-3.626491 2.90119,-1.054979 6.79143,-1.054979 2.83525,0 5.20896,0.461553 2.3737,0.461554 3.8243,1.05498 l -2.50558,7.187046 q -1.12091,-0.329681 -2.50557,-0.593426 -1.31873,-0.329681 -2.96713,-0.329681 -2.04403,0 -3.03307,1.252788 -0.92311,1.252788 -0.92311,3.164937 v 2.241831 h 8.50577 z"
           id="path1384" />
        <path
           d="m 200.66645,55.425599 q 0.7253,0 1.71434,0.06594 0.98905,0.06594 1.58247,0.197808 l -0.72529,9.231069 q -0.52749,-0.131873 -1.38467,-0.197809 -0.85717,-0.131872 -1.51653,-0.131872 -2.50557,0 -4.81334,0.923106 -2.30777,0.857171 -3.75836,2.835257 -1.38466,1.978086 -1.38466,5.406769 v 18.330264 h -9.8245 v -36.00117 h 7.45079 l 1.4506,6.066131 h 0.46155 q 1.58247,-2.76932 4.35179,-4.747407 2.76932,-1.978086 6.39581,-1.978086 z"
           id="path1386" />
        <path
           d="m 215.43619,41.974614 q 2.1759,0 3.75837,1.054979 1.58247,0.989043 1.58247,3.758364 0,2.703384 -1.58247,3.758363 -1.58247,1.05498 -3.75837,1.05498 -2.24183,0 -3.8243,-1.05498 -1.51653,-1.054979 -1.51653,-3.758363 0,-2.769321 1.51653,-3.758364 1.58247,-1.054979 3.8243,-1.054979 z m 4.87928,14.110347 v 36.001167 h -9.82449 V 56.084961 Z"
           id="path1388" />
        <path
           d="m 245.43719,55.425599 q 7.45079,0 11.80258,4.285854 4.35179,4.219917 4.35179,12.066325 v 4.747406 h -23.20955 q 0.13188,4.153981 2.43964,6.527684 2.37371,2.373704 6.52769,2.373704 3.42868,0 6.26394,-0.659362 2.90119,-0.725299 5.93426,-2.175895 v 7.582663 q -2.70339,1.318724 -5.60458,1.91215 -2.90119,0.659362 -7.05518,0.659362 -5.40676,0 -9.56074,-1.978086 -4.15399,-2.044022 -6.52769,-6.066131 -2.3737,-4.088044 -2.3737,-10.351983 0,-6.26394 2.10996,-10.483857 2.17589,-4.219917 6.00019,-6.329875 3.8243,-2.109959 8.90139,-2.109959 z m 0.0659,6.989238 q -2.90119,0 -4.7474,1.846214 -1.84622,1.846213 -2.1759,5.736449 h 13.78067 q -0.0659,-3.230874 -1.78028,-5.406768 -1.6484,-2.175895 -5.07709,-2.175895 z"
           id="path1390" />
        <path
           d="m 290.01003,55.425599 q 5.80238,0 9.297,3.164938 3.49462,3.099002 3.49462,10.022303 v 23.473288 h -9.82449 V 71.052479 q 0,-3.890236 -1.38466,-5.802385 -1.38466,-1.978086 -4.41773,-1.978086 -4.48366,0 -6.13207,3.099001 -1.6484,3.033065 -1.6484,8.769515 v 16.945604 h -9.8245 V 56.084961 h 7.51673 l 1.31873,4.615535 h 0.52749 q 1.71434,-2.769321 4.68147,-4.022109 3.03306,-1.252788 6.39581,-1.252788 z"
           id="path1392" />
        <path
           d="m 324.29684,92.74549 q -6.0002,0 -9.8245,-4.68147 -3.75836,-4.747407 -3.75836,-13.912539 0,-9.231068 3.8243,-13.978475 3.8243,-4.747407 10.0223,-4.747407 3.89024,0 6.39581,1.516533 2.50558,1.516533 3.95617,3.758364 h 0.32969 q -0.19781,-1.05498 -0.46156,-3.033066 -0.26374,-2.044022 -0.26374,-4.153981 V 41.974614 h 9.82449 v 50.111514 h -7.51673 l -1.91215,-4.68147 h -0.39561 q -1.4506,2.241831 -3.89024,3.8243 -2.43964,1.516532 -6.32987,1.516532 z m 3.42868,-7.846408 q 4.02211,0 5.67051,-2.373703 1.64841,-2.43964 1.78028,-7.252983 v -1.054979 q 0,-5.20896 -1.64841,-7.97828 -1.58246,-2.835257 -5.93425,-2.835257 -3.23088,0 -5.07709,2.835257 -1.84622,2.76932 -1.84622,8.044216 0,5.274897 1.84622,7.978281 1.84621,2.637448 5.20896,2.637448 z"
           id="path1394" />
        <path
           d="m 379.74913,81.404463 q 0,5.472705 -3.89024,8.439834 -3.8243,2.901193 -11.47289,2.901193 -3.75837,0 -6.46175,-0.527489 -2.70339,-0.461554 -5.40677,-1.582469 v -8.110153 q 2.90119,1.318724 6.26394,2.175894 3.36274,0.857171 5.93426,0.857171 2.83525,0 4.08804,-0.857171 1.25279,-0.85717 1.25279,-2.24183 0,-0.923107 -0.52749,-1.648405 -0.46155,-0.725299 -2.10996,-1.648406 -1.6484,-0.923106 -5.14302,-2.373703 -3.42869,-1.450596 -5.60458,-2.835257 -2.10996,-1.450596 -3.16494,-3.428682 -1.05498,-2.044022 -1.05498,-5.077088 0,-5.011151 3.89024,-7.516727 3.89023,-2.505576 10.35198,-2.505576 3.36275,0 6.39581,0.659362 3.03307,0.659362 6.26394,2.175895 l -2.96713,7.055174 q -2.63744,-1.120916 -5.01115,-1.846214 -2.3737,-0.791234 -4.81334,-0.791234 -4.35179,0 -4.35179,2.373703 0,0.857171 0.52749,1.582469 0.59343,0.659362 2.17589,1.450596 1.64841,0.791235 4.81335,2.109959 3.099,1.252788 5.34083,2.637448 2.24183,1.318724 3.42868,3.362746 1.25279,2.044023 1.25279,5.20896 z"
           id="path1396" />
      </g>
    </g>
  </g>
</svg>
